<svg xmlns="http://www.w3.org/2000/svg" viewBox="0 0 711.56 711.56"><defs><style>.cls-1{fill:#ff2424;stroke:#fffcfa;}.cls-1,.cls-2,.cls-3,.cls-4{stroke-linecap:round;stroke-linejoin:round;}.cls-1,.cls-5{stroke-width:9px;}.cls-2{fill:#fff;}.cls-2,.cls-3,.cls-4{stroke:#231f20;}.cls-2,.cls-4{stroke-width:10px;}.cls-3,.cls-4,.cls-5{fill:none;}.cls-3{stroke-width:12px;}.cls-5,.cls-6,.cls-7{stroke:#000;}.cls-6{stroke-miterlimit:10;stroke-width:7px;}.cls-7{stroke-width:0.5px;}</style></defs><title>Asset 1</title><g id="Layer_2" data-name="Layer 2"><g id="Layer_6" data-name="Layer 6"><circle class="cls-1" cx="355.78" cy="355.78" r="351.28"/><polygon class="cls-2" points="355.81 339.01 497.71 257.06 497.71 311.67 450.41 339.01 450.44 475.52 403.11 502.82 401.91 366.41 355.78 393.63 355.81 339.01"/><polyline class="cls-3" points="403.08 502.82 450.38 530.16 497.68 502.85 450.4 475.53"/><polyline class="cls-4" points="497.68 502.85 497.68 366.32 544.97 339.01 544.97 284.4 497.68 257.06"/><line class="cls-4" x1="355.78" y1="393.63" x2="402.38" y2="419.72"/><polygon class="cls-2" points="170.22 206.98 169.73 392.4 209.88 369.25 209.86 299.14 290.34 253.41 290.56 137.48 170.22 206.98"/><polyline class="cls-4" points="290.56 137.48 330.46 160.76 330.45 276.57 249.95 322.91 249.95 392.39 209.83 415.55 169.73 392.4 209.88 369.25 249.95 392.39"/><path class="cls-5" d="M330.63,187.21c133.13,16.24,27.22,125.53,95.55,68.13s78.47-19.81,41.11-56.25"/><path class="cls-6" d="M475.85,197.17l-24.24-51.33a17,17,0,0,0,.18-15.69c-4.51-8.61-15.87-11.56-25.38-6.58s-13.56,16-9.05,24.59a17,17,0,0,0,13,8.81l32.43,48Z"/><path class="cls-5" d="M402.46,505.86C344.25,547.54,382,633.67,317.12,579.2S210,549.54,235.82,505.86"/><path class="cls-7" d="M175.67,532.53a87.81,87.81,0,0,1,4.25-60.46c4.76-8.77,13.65-13,20.85-10.93,5.19,1.5,8,5.87,9,7.55l37.28-5.19s19.82-18.88,29.26-5.67c2.84,5.78,23.13,47.32,23.13,63.24,0,2.32,0,7.14-3.31,9.91-3.62,3-8.89,1.37-10.49.55-2.68-1.4-5.09-3.42-8.6-6-6.49-4.69-9.4-9.11-10.51-10.16-4.43-4.17-15.86-5.37-47,8.39-3.59,9.32-6.17,16.27-7.86,20.89-1.13,3.09-1.88,5.19-3.85,7.43-3.78,4.3-10.49,7.33-16,6.23C182.8,556.54,179,543.93,175.67,532.53Z"/></g></g></svg>