<svg xmlns="http://www.w3.org/2000/svg" viewBox="0 0 69.89 76.57"><defs><style>.cls-1{fill:none;stroke:#000;stroke-linecap:round;stroke-linejoin:round;stroke-width:3px;}</style></defs><title>nowhiteAsset 5</title><g id="Layer_2" data-name="Layer 2"><g id="Layer_2-2" data-name="Layer 2"><polyline class="cls-1" points="27.93 1.5 1.5 1.5 1.5 75.07 27.93 75.07"/><polyline class="cls-1" points="41.96 1.5 68.39 1.5 68.39 75.07 41.96 75.07"/><path class="cls-1" d="M23.2,28.4c1.56,1.48,4,1.59,6.1,1.39,7.09-.66,14.24-4.08,17.83-10.22"/><path class="cls-1" d="M24.87,24.72c4.37-2.54,8.06-2.91,13.05-2.06"/><path class="cls-1" d="M45,27.74c2.52,2.12,3.8,3.54,4.42,6.66a24.12,24.12,0,0,1,.28,9.23A18.63,18.63,0,0,1,48.11,49a6.94,6.94,0,0,1-4,3.62c-3.11.88-6.91-1-9.85-2.32a20.89,20.89,0,0,0-6.81-1.81c-3-.28-6.39.23-8.6,2.36S16.15,57,18.52,59c2.05,1.69,5.33,1.1,7.26-.73s2.76-4.55,3.09-7.19a51.58,51.58,0,0,0-.29-11.24,19.29,19.29,0,0,0-1.23-6.24"/></g></g></svg>