<svg xmlns="http://www.w3.org/2000/svg" viewBox="0 0 702.56 702.56"><defs><style>.cls-1{fill:#ff2424;}.cls-2{fill:#fff;}.cls-2,.cls-3,.cls-4,.cls-5,.cls-6,.cls-7{stroke:#231f20;}.cls-2,.cls-3,.cls-4{stroke-linecap:round;stroke-linejoin:round;}.cls-2,.cls-4{stroke-width:10px;}.cls-3,.cls-4,.cls-5{fill:none;}.cls-3{stroke-width:12px;}.cls-5{stroke-width:9px;}.cls-6,.cls-7{fill:#231f20;}.cls-6{stroke-miterlimit:10;stroke-width:7px;}.cls-7{stroke-width:0.5px;}</style></defs><title>Layer 6</title><g id="Layer_2" data-name="Layer 2"><g id="Layer_6" data-name="Layer 6"><circle class="cls-1" cx="351.28" cy="351.28" r="351.28"/><polygon class="cls-2" points="351.31 334.51 493.21 252.56 493.21 307.17 445.91 334.51 445.94 471.02 398.61 498.32 397.41 361.91 351.28 389.13 351.31 334.51"/><polyline class="cls-3" points="398.58 498.32 445.88 525.66 493.18 498.35 445.9 471.03"/><polyline class="cls-4" points="493.18 498.35 493.18 361.82 540.47 334.51 540.47 279.9 493.18 252.56"/><line class="cls-4" x1="351.28" y1="389.13" x2="397.88" y2="415.22"/><polygon class="cls-2" points="165.72 202.48 165.23 387.9 205.38 364.75 205.36 294.64 285.84 248.91 286.06 132.98 165.72 202.48"/><polyline class="cls-4" points="286.06 132.98 325.96 156.26 325.95 272.07 245.45 318.41 245.45 387.89 205.33 411.05 165.23 387.9 205.38 364.75 245.45 387.89"/><path class="cls-5" d="M326.13,182.71c133.13,16.24,27.22,125.53,95.55,68.13s78.47-19.81,41.11-56.25"/><path class="cls-6" d="M471.35,192.67l-24.24-51.33a17,17,0,0,0,.18-15.69c-4.51-8.61-15.87-11.56-25.38-6.58s-13.56,16-9.05,24.59a17,17,0,0,0,13,8.81l32.43,48Z"/><path class="cls-5" d="M398,501.36C339.75,543,377.47,629.17,312.62,574.7S205.45,545,231.32,501.36"/><path class="cls-7" d="M171.17,528a87.81,87.81,0,0,1,4.25-60.46c4.76-8.77,13.65-13,20.85-10.93,5.19,1.5,8,5.87,9,7.55L242.55,459s19.82-18.88,29.26-5.67c2.84,5.78,23.13,47.32,23.13,63.24,0,2.32,0,7.14-3.31,9.91-3.62,3-8.89,1.37-10.49.55-2.68-1.4-5.09-3.42-8.6-6-6.49-4.69-9.4-9.11-10.51-10.16-4.43-4.17-15.86-5.37-47,8.39-3.59,9.32-6.17,16.27-7.86,20.89-1.13,3.09-1.88,5.19-3.85,7.43-3.78,4.3-10.49,7.33-16,6.23C178.3,552,174.45,539.43,171.17,528Z"/></g></g></svg>